he life of a businessman begins to change after he inherits six penguins, and as he transforms his apartment into a winter wonderland, his professional side starts to unravel.

Director:
Mark Waters
Writers:
Sean Anders (screenplay), John Morris (screenplay), and 3 more credits »
Stars:
Jim Carrey, Carla Gugino and Angela Lansbury 

Media info 

General
Unique ID                        : 184543145935390794858116872125752721075 (0x8AD5B7927A935649908E4442A30ABEB3)
Complete name                    : E:\torrent2\Mr Popper's Penguins (2011)Dut;Eng spoken.BluRayrip.mkv.1080p.AVC.AC3;DTS 5.1.ACB-Team\Mr Popper's Penguins (2011)Dut;Eng spoken.BluRayrip.mkv.1080p.AVC.AC3;DTS 5.1.ACB-Team.mkv
Format                           : Matroska
Format version                   : Version 2
File size                        : 9.48 GiB
Duration                         : 1h 34mn
Overall bit rate mode            : Variable
Overall bit rate                 : 14.4 Mbps
Movie name                       : movie
Encoded date                     : UTC 2011-12-21 18:55:24
Writing application              : mkvmerge v3.2.0 ('Beginnings') built on Feb 12 2010 16:46:17
Writing library                  : libebml v0.7.9 + libmatroska v0.8.1

Video
ID                               : 1
Format                           : AVC
Format/Info                      : Advanced Video Codec
Format profile                   : High@L4.1
Format settings, CABAC           : Yes
Format settings, ReFrames        : 2 frames
Format settings, GOP             : M=4, N=24
Muxing mode                      : Container profile=Unknown@0.0
Codec ID                         : V_MPEG4/ISO/AVC
Duration                         : 1h 34mn
Bit rate mode                    : Variable
Bit rate                         : 12.5 Mbps
Maximum bit rate                 : 35.0 Mbps
Width                            : 1 920 pixels
Height                           : 1 080 pixels
Display aspect ratio             : 16:9
Frame rate                       : 23.976 fps
Color space                      : YUV
Chroma subsampling               : 4:2:0
Bit depth                        : 8 bits
Scan type                        : Progressive
Bits/(Pixel*Frame)               : 0.252
Stream size                      : 8.00 GiB (84%)
Writing library                  : x264 core 118 r2085 8a62835
Encoding settings                : cabac=1 / ref=1 / deblock=1:0:0 / analyse=0x3:0x3 / me=dia / subme=1 / psy=1 / psy_rd=1.00:0.00 / mixed_ref=0 / me_range=16 / chroma_me=1 / trellis=0 / 8x8dct=1 / cqm=0 / deadzone=21,11 / fast_pskip=1 / chroma_qp_offset=0 / threads=3 / sliced_threads=0 / slices=4 / nr=0 / decimate=1 / interlaced=0 / bluray_compat=1 / constrained_intra=0 / bframes=3 / b_pyramid=0 / b_adapt=1 / b_bias=0 / direct=1 / weightb=1 / open_gop=0 / weightp=1 / keyint=24 / keyint_min=1 / scenecut=40 / intra_refresh=0 / rc_lookahead=0 / rc=abr / mbtree=0 / bitrate=12544 / ratetol=1.0 / qcomp=0.60 / qpmin=0 / qpmax=69 / qpstep=4 / vbv_maxrate=35000 / vbv_bufsize=30000 / nal_hrd=vbr / ip_ratio=1.10 / pb_ratio=1.10 / aq=1:1.00
Default                          : No
Forced                           : No

Audio #1
ID                               : 2
Format                           : DTS
Format/Info                      : Digital Theater Systems
Codec ID                         : A_DTS
Duration                         : 1h 34mn
Bit rate mode                    : Constant
Bit rate                         : 1 510 Kbps
Channel(s)                       : 6 channels
Channel positions                : Front: L C R, Side: L R, LFE
Sampling rate                    : 48.0 KHz
Bit depth                        : 24 bits
Compression mode                 : Lossy
Stream size                      : 1 019 MiB (10%)
Language                         : English
Default                          : Yes
Forced                           : No

Audio #2
ID                               : 3
Format                           : AC-3
Format/Info                      : Audio Coding 3
Mode extension                   : CM (complete main)
Codec ID                         : A_AC3
Duration                         : 1h 34mn
Bit rate mode                    : Constant
Bit rate                         : 448 Kbps
Channel(s)                       : 6 channels
Channel positions                : Front: L C R, Side: L R, LFE
Sampling rate                    : 48.0 KHz
Bit depth                        : 16 bits
Compression mode                 : Lossy
Stream size                      : 302 MiB (3%)
Language                         : Dutch
Default                          : No
Forced                           : No

Text #1
ID                               : 4
Format                           : VobSub
Muxing mode                      : zlib
Codec ID                         : S_VOBSUB
Codec ID/Info                    : The same subtitle format used on DVDs
Language                         : English
Default                          : No
Forced                           : No

Text #2
ID                               : 5
Format                           : VobSub
Muxing mode                      : zlib
Codec ID                         : S_VOBSUB
Codec ID/Info                    : The same subtitle format used on DVDs
Language                         : Spanish
Default                          : No
Forced                           : No

Text #3
ID                               : 6
Format                           : VobSub
Muxing mode                      : zlib
Codec ID                         : S_VOBSUB
Codec ID/Info                    : The same subtitle format used on DVDs
Language                         : French
Default                          : No
Forced                           : No

Text #4
ID                               : 7
Format                           : VobSub
Muxing mode                      : zlib
Codec ID                         : S_VOBSUB
Codec ID/Info                    : The same subtitle format used on DVDs
Language                         : Dutch
Default                          : No
Forced                           : No

Text #5
ID                               : 8
Format                           : VobSub
Muxing mode                      : zlib
Codec ID                         : S_VOBSUB
Codec ID/Info                    : The same subtitle format used on DVDs
Language                         : German
Default                          : No
Forced                           : No

Text #6
ID                               : 9
Format                           : VobSub
Muxing mode                      : zlib
Codec ID                         : S_VOBSUB
Codec ID/Info                    : The same subtitle format used on DVDs
Language                         : Finnish
Default                          : No
Forced                           : No

Text #7
ID                               : 10
Format                           : VobSub
Muxing mode                      : zlib
Codec ID                         : S_VOBSUB
Codec ID/Info                    : The same subtitle format used on DVDs
Language                         : Swedish
Default                          : No
Forced                           : No

Text #8
ID                               : 11
Format                           : VobSub
Muxing mode                      : zlib
Codec ID                         : S_VOBSUB
Codec ID/Info                    : The same subtitle format used on DVDs
Language                         : Italian
Default                          : No
Forced                           : No

Text #9
ID                               : 12
Format                           : VobSub
Muxing mode                      : zlib
Codec ID                         : S_VOBSUB
Codec ID/Info                    : The same subtitle format used on DVDs
Language                         : Norwegian
Default                          : No
Forced                           : No

Text #10
ID                               : 13
Format                           : VobSub
Muxing mode                      : zlib
Codec ID                         : S_VOBSUB
Codec ID/Info                    : The same subtitle format used on DVDs
Language                         : Chinese
Default                          : No
Forced                           : No

Text #11
ID                               : 14
Format                           : VobSub
Muxing mode                      : zlib
Codec ID                         : S_VOBSUB
Codec ID/Info                    : The same subtitle format used on DVDs
Language                         : Danish
Default                          : No
Forced                           : No

Text #12
ID                               : 15
Format                           : VobSub
Muxing mode                      : zlib
Codec ID                         : S_VOBSUB
Codec ID/Info                    : The same subtitle format used on DVDs
Language                         : Arabic
Default                          : No
Forced                           : No

Menu
00:00:00.000                     : en:00:00:00.000
00:02:45.248                     : en:00:02:45.248
00:07:17.061                     : en:00:07:17.061
00:11:37.988                     : en:00:11:37.988
00:14:17.982                     : en:00:14:17.982
00:17:46.398                     : en:00:17:46.398
00:20:52.793                     : en:00:20:52.793
00:23:31.118                     : en:00:23:31.118
00:28:24.369                     : en:00:28:24.369
00:32:26.069                     : en:00:32:26.069
00:36:10.543                     : en:00:36:10.543
00:38:17.211                     : en:00:38:17.211
00:42:16.909                     : en:00:42:16.909
00:47:22.089                     : en:00:47:22.089
00:50:54.801                     : en:00:50:54.801
00:54:07.619                     : en:00:54:07.619
00:56:44.275                     : en:00:56:44.275
01:00:26.122                     : en:01:00:26.122
01:06:45.001                     : en:01:06:45.001
01:09:46.557                     : en:01:09:46.557
01:13:17.518                     : en:01:13:17.518
01:19:13.373                     : en:01:19:13.373
01:23:39.514                     : en:01:23:39.514
01:27:26.115                     : en:01:27:26.115

